<svg
  width="100%"
  height="100%"
  viewBox="0 0 1024 1024"
  version="1.1"
  xmlns="http://www.w3.org/2000/svg"
  fill="#FFF"
>
  <path d="M512,64C264.6,64,64,264.6,64,512s200.6,448,448,448s448-200.6,448-448S759.4,64,512,64z M512,896
    c-212.1,0-384-171.9-384-384S299.9,128,512,128s384,171.9,384,384S724.1,896,512,896z"/>
  <path d="M512,352c-88.4,0-160,71.6-160,160v96c0,17.7,14.3,32,32,32s32-14.3,32-32v-96c0-52.9,43.1-96,96-96
    s96,43.1,96,96v96c0,17.7,14.3,32,32,32s32-14.3,32-32v-96C672,423.6,600.4,352,512,352z"/>
  <path d="M512,608c-35.3,0-64,28.7-64,64s28.7,64,64,64s64-28.7,64-64S547.3,608,512,608z"/>
  <path d="M512 512L640 512" stroke="#FFF" stroke-width="32"/>
  <path d="M384 512L512 512" stroke="#FFF" stroke-width="32"/>
  <circle cx="512" cy="512" r="48"/>
</svg>
